# xmcd CD database file
#
# Track frame offsets:
#	150
#	9557
#	28030
#	53205
#	64437
#	84532
#	99722
#	119970
#	139872
#	150162
#	174782
#
# Disc length: 2505 seconds
#
# Revision: 0
# Processed by: cddbd v1.5.1PL0 Copyright (c) Steve Scherf et al.
# Submitted via: CDex 1.51
#
DISCID=9009c70b
DTITLE=川井憲次・緒方恵美 - 円盤皇女ワるきゅーレ・フォー・ウェディング
DYEAR=2003
DGENRE=Anime
TTITLE0=for_Walkure
TTITLE1=あなたの花嫁になりたい
TTITLE2=護ってあげたい
TTITLE3=夢のような現実
TTITLE4=おもいっきりジャンプ！
TTITLE5=私の中の私
TTITLE6=Ａｇａｐｅ（水の惑星Ver）
TTITLE7=ずっとずっと
TTITLE8=蒼い時
TTITLE9=ｂｌｕｅ_moon
TTITLE10=旅立ち
EXTD=YEAR: 2003
EXTT0=
EXTT1=
EXTT2=
EXTT3=
EXTT4=
EXTT5=
EXTT6=
EXTT7=
EXTT8=
EXTT9=
EXTT10=
PLAYORDER=
